<?xml version="1.0" encoding="utf-8"?>
<!-- Generator: Adobe Illustrator 24.1.2, SVG Export Plug-In . SVG Version: 6.00 Build 0)  -->
<svg version="1.1" id="Capa_1" xmlns="http://www.w3.org/2000/svg" xmlns:xlink="http://www.w3.org/1999/xlink" x="0px" y="0px"
	 viewBox="0 0 512 512" style="enable-background:new 0 0 512 512;" xml:space="preserve">
<style type="text/css">
	.st0{fill:#00C58E;}
</style>
<g>
	<g>
		<path class="st0" d="M406,332c-29.6,0-56,14.4-72.4,36.6l-141.3-72.2c2.4-8.1,3.6-16.6,3.6-25.4c0-11.9-2.3-23.3-6.6-33.8
			l148.1-89C354,167.7,378.6,180,406,180c49.6,0,90-40.4,90-90S455.6,0,406,0s-90,40.4-90,90c0,11.5,2.2,22.4,6.1,32.5l-148.4,89.2
			C157.2,192.9,132.9,181,106,181c-49.6,0-90,40.4-90,90s40.4,90,90,90c30.1,0,56.8-14.9,73.2-37.7l140.9,72c-2.6,8.4-4,17.4-4,26.7
			c0,49.6,40.4,90,90,90s90-40.4,90-90S455.6,332,406,332z M406,30c33.1,0,60,26.9,60,60s-26.9,60-60,60s-60-26.9-60-60
			S372.9,30,406,30z M106,331c-33.1,0-60-26.9-60-60s26.9-60,60-60s60,26.9,60,60S139.1,331,106,331z M406,482
			c-33.1,0-60-26.9-60-60s26.9-60,60-60s60,26.9,60,60S439.1,482,406,482z"/>
	</g>
</g>
</svg>
